{
	"asset":{
		"generator":"Khronos glTF Blender I/O v4.2.70",
		"version":"2.0"
	},
	"extensionsUsed":[
		"KHR_materials_emissive_strength",
		"KHR_materials_specular",
		"KHR_materials_ior"
	],
	"scene":0,
	"scenes":[
		{
			"name":"Scene",
			"nodes":[
				0,
				1,
				2,
				3,
				4
			]
		}
	],
	"nodes":[
		{
			"mesh":0,
			"name":"Cube",
			"translation":[
				0,
				1.3035767078399658,
				0
			]
		},
		{
			"mesh":1,
			"name":"LFeet",
			"rotation":[
				0,
				0.5163602828979492,
				0,
				0.8563714623451233
			],
			"scale":[
				0.21787810325622559,
				0.20647354423999786,
				0.2966426908969879
			],
			"translation":[
				0.07727086544036865,
				0.00017789006233215332,
				0.3365742564201355
			]
		},
		{
			"mesh":2,
			"name":"RFeet",
			"rotation":[
				0,
				0.5163602828979492,
				0,
				0.8563714623451233
			],
			"scale":[
				0.21787810325622559,
				0.20647354423999786,
				0.2966426908969879
			],
			"translation":[
				0.07727086544036865,
				0.00017789006233215332,
				0.45287975668907166
			]
		},
		{
			"mesh":3,
			"name":"LEye",
			"rotation":[
				0.014810441993176937,
				0,
				0.7069516777992249,
				0.7071067690849304
			],
			"scale":[
				0.16451317071914673,
				0.16451317071914673,
				0.16451318562030792
			],
			"translation":[
				0.5312161445617676,
				1.3320430517196655,
				0.1783212423324585
			]
		},
		{
			"mesh":4,
			"name":"REye",
			"rotation":[
				0.014810441993176937,
				0,
				0.7069516777992249,
				0.7071067690849304
			],
			"scale":[
				0.16451317071914673,
				0.16451317071914673,
				0.16451318562030792
			],
			"translation":[
				0.5312161445617676,
				1.3320430517196655,
				-0.20964008569717407
			]
		}
	],
	"animations":[
		{
			"channels":[
				{
					"sampler":0,
					"target":{
						"node":0,
						"path":"translation"
					}
				}
			],
			"name":"CubeAction.003",
			"samplers":[
				{
					"input":35,
					"interpolation":"LINEAR",
					"output":36
				}
			]
		},
		{
			"channels":[
				{
					"sampler":0,
					"target":{
						"node":3,
						"path":"weights"
					}
				}
			],
			"name":"KeyAction.003",
			"samplers":[
				{
					"input":37,
					"interpolation":"LINEAR",
					"output":38
				}
			]
		},
		{
			"channels":[
				{
					"sampler":0,
					"target":{
						"node":3,
						"path":"translation"
					}
				}
			],
			"name":"LEyeAction.001",
			"samplers":[
				{
					"input":35,
					"interpolation":"LINEAR",
					"output":39
				}
			]
		},
		{
			"channels":[
				{
					"sampler":0,
					"target":{
						"node":4,
						"path":"weights"
					}
				}
			],
			"name":"KeyAction.004",
			"samplers":[
				{
					"input":37,
					"interpolation":"LINEAR",
					"output":40
				}
			]
		},
		{
			"channels":[
				{
					"sampler":0,
					"target":{
						"node":4,
						"path":"translation"
					}
				}
			],
			"name":"REyeAction.001",
			"samplers":[
				{
					"input":35,
					"interpolation":"LINEAR",
					"output":41
				}
			]
		}
	],
	"materials":[
		{
			"doubleSided":true,
			"extensions":{
				"KHR_materials_specular":{
					"specularFactor":0,
					"specularColorFactor":[
						0.5018609166145325,
						0.0546407587826252,
						0.19066289067268372
					]
				},
				"KHR_materials_ior":{
					"ior":1
				}
			},
			"name":"Body",
			"pbrMetallicRoughness":{
				"baseColorFactor":[
					0.800000011920929,
					0.800000011920929,
					0.800000011920929,
					1
				],
				"roughnessFactor":0.013636363670229912
			}
		},
		{
			"doubleSided":true,
			"name":"screen",
			"pbrMetallicRoughness":{
				"baseColorFactor":[
					0,
					0,
					0,
					1
				],
				"metallicFactor":0,
				"roughnessFactor":0.5
			}
		},
		{
			"doubleSided":true,
			"emissiveFactor":[
				1,
				0,
				0.08656488358974457
			],
			"extensions":{
				"KHR_materials_emissive_strength":{
					"emissiveStrength":42
				}
			},
			"name":"Glow",
			"pbrMetallicRoughness":{
				"baseColorFactor":[
					0,
					0,
					0,
					1
				]
			}
		},
		{
			"alphaMode":"BLEND",
			"doubleSided":true,
			"emissiveFactor":[
				1,
				0,
				0.13386422395706177
			],
			"extensions":{
				"KHR_materials_emissive_strength":{
					"emissiveStrength":41.39999771118164
				}
			},
			"name":"Glow eye",
			"pbrMetallicRoughness":{
				"baseColorFactor":[
					0.800000011920929,
					0.800000011920929,
					0.800000011920929,
					1
				],
				"metallicFactor":0,
				"roughnessFactor":0.5
			}
		},
		{
			"alphaMode":"BLEND",
			"doubleSided":true,
			"emissiveFactor":[
				1,
				0,
				0.13386422395706177
			],
			"extensions":{
				"KHR_materials_emissive_strength":{
					"emissiveStrength":41.39999771118164
				}
			},
			"name":"Glow eye.001",
			"pbrMetallicRoughness":{
				"baseColorFactor":[
					0.800000011920929,
					0.800000011920929,
					0.800000011920929,
					1
				],
				"metallicFactor":0,
				"roughnessFactor":0.5
			}
		}
	],
	"meshes":[
		{
			"name":"Cube",
			"primitives":[
				{
					"attributes":{
						"POSITION":0,
						"NORMAL":1,
						"TEXCOORD_0":2
					},
					"indices":3,
					"material":0
				},
				{
					"attributes":{
						"POSITION":4,
						"NORMAL":5,
						"TEXCOORD_0":6
					},
					"indices":7,
					"material":1
				},
				{
					"attributes":{
						"POSITION":8,
						"NORMAL":9,
						"TEXCOORD_0":10
					},
					"indices":11,
					"material":2
				}
			]
		},
		{
			"name":"Sphere",
			"primitives":[
				{
					"attributes":{
						"POSITION":12,
						"NORMAL":13,
						"TEXCOORD_0":14
					},
					"indices":15,
					"material":0
				}
			]
		},
		{
			"name":"Sphere.003",
			"primitives":[
				{
					"attributes":{
						"POSITION":16,
						"NORMAL":17,
						"TEXCOORD_0":18
					},
					"indices":19,
					"material":0
				}
			]
		},
		{
			"extras":{
				"targetNames":[
					"blink",
					"smile"
				]
			},
			"name":"Plane",
			"primitives":[
				{
					"attributes":{
						"POSITION":20,
						"NORMAL":21,
						"TEXCOORD_0":22
					},
					"indices":23,
					"material":3,
					"targets":[
						{
							"POSITION":24,
							"NORMAL":25
						},
						{
							"POSITION":26,
							"NORMAL":27
						}
					]
				}
			],
			"weights":[
				0,
				0
			]
		},
		{
			"extras":{
				"targetNames":[
					"blink",
					"smile"
				]
			},
			"name":"Plane.002",
			"primitives":[
				{
					"attributes":{
						"POSITION":28,
						"NORMAL":29,
						"TEXCOORD_0":30
					},
					"indices":23,
					"material":4,
					"targets":[
						{
							"POSITION":31,
							"NORMAL":32
						},
						{
							"POSITION":33,
							"NORMAL":34
						}
					]
				}
			],
			"weights":[
				0,
				0
			]
		}
	],
	"accessors":[
		{
			"bufferView":0,
			"componentType":5126,
			"count":1419,
			"max":[
				0.642659068107605,
				0.8563101291656494,
				0.8607301712036133
			],
			"min":[
				-0.8563101887702942,
				-0.8563101887702942,
				-0.8563101887702942
			],
			"type":"VEC3"
		},
		{
			"bufferView":1,
			"componentType":5126,
			"count":1419,
			"type":"VEC3"
		},
		{
			"bufferView":2,
			"componentType":5126,
			"count":1419,
			"type":"VEC2"
		},
		{
			"bufferView":3,
			"componentType":5123,
			"count":6258,
			"type":"SCALAR"
		},
		{
			"bufferView":4,
			"componentType":5126,
			"count":49,
			"max":[
				0.5276898741722107,
				0.528628945350647,
				0.528628945350647
			],
			"min":[
				0.5276898741722107,
				-0.528628945350647,
				-0.528628945350647
			],
			"type":"VEC3"
		},
		{
			"bufferView":5,
			"componentType":5126,
			"count":49,
			"type":"VEC3"
		},
		{
			"bufferView":6,
			"componentType":5126,
			"count":49,
			"type":"VEC2"
		},
		{
			"bufferView":7,
			"componentType":5123,
			"count":216,
			"type":"SCALAR"
		},
		{
			"bufferView":8,
			"componentType":5126,
			"count":100,
			"max":[
				0.19415265321731567,
				0.19254332780838013,
				0.8338066339492798
			],
			"min":[
				-0.18905845284461975,
				-0.1906677633523941,
				0.80379319190979
			],
			"type":"VEC3"
		},
		{
			"bufferView":9,
			"componentType":5126,
			"count":100,
			"type":"VEC3"
		},
		{
			"bufferView":10,
			"componentType":5126,
			"count":100,
			"type":"VEC2"
		},
		{
			"bufferView":11,
			"componentType":5123,
			"count":192,
			"type":"SCALAR"
		},
		{
			"bufferView":12,
			"componentType":5126,
			"count":541,
			"max":[
				1.0396831035614014,
				1.0627195835113525,
				0.9807849526405334
			],
			"min":[
				-1.0396826267242432,
				0.0018954277038574219,
				-0.9807852506637573
			],
			"type":"VEC3"
		},
		{
			"bufferView":13,
			"componentType":5126,
			"count":541,
			"type":"VEC3"
		},
		{
			"bufferView":14,
			"componentType":5126,
			"count":541,
			"type":"VEC2"
		},
		{
			"bufferView":15,
			"componentType":5123,
			"count":2874,
			"type":"SCALAR"
		},
		{
			"bufferView":16,
			"componentType":5126,
			"count":731,
			"max":[
				4.340428829193115,
				1.0627195835113525,
				-0.5301823616027832
			],
			"min":[
				1.8927624225616455,
				0.0018954277038574219,
				-2.1806414127349854
			],
			"type":"VEC3"
		},
		{
			"bufferView":17,
			"componentType":5126,
			"count":731,
			"type":"VEC3"
		},
		{
			"bufferView":18,
			"componentType":5126,
			"count":731,
			"type":"VEC2"
		},
		{
			"bufferView":19,
			"componentType":5123,
			"count":3996,
			"type":"SCALAR"
		},
		{
			"bufferView":20,
			"componentType":5126,
			"count":32,
			"max":[
				1.2206685543060303,
				0.029912885278463364,
				0.6041904091835022
			],
			"min":[
				-1.220668911933899,
				-0.025828082114458084,
				-0.6015446782112122
			],
			"type":"VEC3"
		},
		{
			"bufferView":21,
			"componentType":5126,
			"count":32,
			"type":"VEC3"
		},
		{
			"bufferView":22,
			"componentType":5126,
			"count":32,
			"type":"VEC2"
		},
		{
			"bufferView":23,
			"componentType":5123,
			"count":48,
			"type":"SCALAR"
		},
		{
			"bufferView":24,
			"componentType":5126,
			"count":32,
			"max":[
				1.0806292295455933,
				1.30385160446167e-08,
				0.02264004573225975
			],
			"min":[
				-1.080627202987671,
				-1.30385160446167e-08,
				-0.022640086710453033
			],
			"type":"VEC3"
		},
		{
			"bufferView":25,
			"componentType":5126,
			"count":32,
			"type":"VEC3"
		},
		{
			"bufferView":26,
			"componentType":5126,
			"count":32,
			"max":[
				1.0686767101287842,
				1.30385160446167e-08,
				0.026667501777410507
			],
			"min":[
				-1.2728610038757324,
				-1.5832483768463135e-08,
				-0.022389668971300125
			],
			"type":"VEC3"
		},
		{
			"bufferView":27,
			"componentType":5126,
			"count":32,
			"type":"VEC3"
		},
		{
			"bufferView":28,
			"componentType":5126,
			"count":32,
			"max":[
				1.2206685543060303,
				0.029912885278463364,
				0.6041904091835022
			],
			"min":[
				-1.220668911933899,
				-0.025828082114458084,
				-0.6015446782112122
			],
			"type":"VEC3"
		},
		{
			"bufferView":29,
			"componentType":5126,
			"count":32,
			"type":"VEC3"
		},
		{
			"bufferView":30,
			"componentType":5126,
			"count":32,
			"type":"VEC2"
		},
		{
			"bufferView":31,
			"componentType":5126,
			"count":32,
			"max":[
				1.0806292295455933,
				1.30385160446167e-08,
				0.02264004573225975
			],
			"min":[
				-1.080627202987671,
				-1.30385160446167e-08,
				-0.022640086710453033
			],
			"type":"VEC3"
		},
		{
			"bufferView":32,
			"componentType":5126,
			"count":32,
			"type":"VEC3"
		},
		{
			"bufferView":33,
			"componentType":5126,
			"count":32,
			"max":[
				1.0686767101287842,
				1.30385160446167e-08,
				0.026667501777410507
			],
			"min":[
				-1.2728610038757324,
				-1.5832483768463135e-08,
				-0.022389668971300125
			],
			"type":"VEC3"
		},
		{
			"bufferView":34,
			"componentType":5126,
			"count":32,
			"type":"VEC3"
		},
		{
			"bufferView":35,
			"componentType":5126,
			"count":401,
			"max":[
				16.666666666666668
			],
			"min":[
				0
			],
			"type":"SCALAR"
		},
		{
			"bufferView":36,
			"componentType":5126,
			"count":401,
			"type":"VEC3"
		},
		{
			"bufferView":37,
			"componentType":5126,
			"count":311,
			"max":[
				12.916666666666666
			],
			"min":[
				0
			],
			"type":"SCALAR"
		},
		{
			"bufferView":38,
			"componentType":5126,
			"count":622,
			"type":"SCALAR"
		},
		{
			"bufferView":39,
			"componentType":5126,
			"count":401,
			"type":"VEC3"
		},
		{
			"bufferView":40,
			"componentType":5126,
			"count":622,
			"type":"SCALAR"
		},
		{
			"bufferView":41,
			"componentType":5126,
			"count":401,
			"type":"VEC3"
		}
	],
	"bufferViews":[
		{
			"buffer":0,
			"byteLength":17028,
			"byteOffset":0,
			"target":34962
		},
		{
			"buffer":0,
			"byteLength":17028,
			"byteOffset":17028,
			"target":34962
		},
		{
			"buffer":0,
			"byteLength":11352,
			"byteOffset":34056,
			"target":34962
		},
		{
			"buffer":0,
			"byteLength":12516,
			"byteOffset":45408,
			"target":34963
		},
		{
			"buffer":0,
			"byteLength":588,
			"byteOffset":57924,
			"target":34962
		},
		{
			"buffer":0,
			"byteLength":588,
			"byteOffset":58512,
			"target":34962
		},
		{
			"buffer":0,
			"byteLength":392,
			"byteOffset":59100,
			"target":34962
		},
		{
			"buffer":0,
			"byteLength":432,
			"byteOffset":59492,
			"target":34963
		},
		{
			"buffer":0,
			"byteLength":1200,
			"byteOffset":59924,
			"target":34962
		},
		{
			"buffer":0,
			"byteLength":1200,
			"byteOffset":61124,
			"target":34962
		},
		{
			"buffer":0,
			"byteLength":800,
			"byteOffset":62324,
			"target":34962
		},
		{
			"buffer":0,
			"byteLength":384,
			"byteOffset":63124,
			"target":34963
		},
		{
			"buffer":0,
			"byteLength":6492,
			"byteOffset":63508,
			"target":34962
		},
		{
			"buffer":0,
			"byteLength":6492,
			"byteOffset":70000,
			"target":34962
		},
		{
			"buffer":0,
			"byteLength":4328,
			"byteOffset":76492,
			"target":34962
		},
		{
			"buffer":0,
			"byteLength":5748,
			"byteOffset":80820,
			"target":34963
		},
		{
			"buffer":0,
			"byteLength":8772,
			"byteOffset":86568,
			"target":34962
		},
		{
			"buffer":0,
			"byteLength":8772,
			"byteOffset":95340,
			"target":34962
		},
		{
			"buffer":0,
			"byteLength":5848,
			"byteOffset":104112,
			"target":34962
		},
		{
			"buffer":0,
			"byteLength":7992,
			"byteOffset":109960,
			"target":34963
		},
		{
			"buffer":0,
			"byteLength":384,
			"byteOffset":117952,
			"target":34962
		},
		{
			"buffer":0,
			"byteLength":384,
			"byteOffset":118336,
			"target":34962
		},
		{
			"buffer":0,
			"byteLength":256,
			"byteOffset":118720,
			"target":34962
		},
		{
			"buffer":0,
			"byteLength":96,
			"byteOffset":118976,
			"target":34963
		},
		{
			"buffer":0,
			"byteLength":384,
			"byteOffset":119072,
			"target":34962
		},
		{
			"buffer":0,
			"byteLength":384,
			"byteOffset":119456,
			"target":34962
		},
		{
			"buffer":0,
			"byteLength":384,
			"byteOffset":119840,
			"target":34962
		},
		{
			"buffer":0,
			"byteLength":384,
			"byteOffset":120224,
			"target":34962
		},
		{
			"buffer":0,
			"byteLength":384,
			"byteOffset":120608,
			"target":34962
		},
		{
			"buffer":0,
			"byteLength":384,
			"byteOffset":120992,
			"target":34962
		},
		{
			"buffer":0,
			"byteLength":256,
			"byteOffset":121376,
			"target":34962
		},
		{
			"buffer":0,
			"byteLength":384,
			"byteOffset":121632,
			"target":34962
		},
		{
			"buffer":0,
			"byteLength":384,
			"byteOffset":122016,
			"target":34962
		},
		{
			"buffer":0,
			"byteLength":384,
			"byteOffset":122400,
			"target":34962
		},
		{
			"buffer":0,
			"byteLength":384,
			"byteOffset":122784,
			"target":34962
		},
		{
			"buffer":0,
			"byteLength":1604,
			"byteOffset":123168
		},
		{
			"buffer":0,
			"byteLength":4812,
			"byteOffset":124772
		},
		{
			"buffer":0,
			"byteLength":1244,
			"byteOffset":129584
		},
		{
			"buffer":0,
			"byteLength":2488,
			"byteOffset":130828
		},
		{
			"buffer":0,
			"byteLength":4812,
			"byteOffset":133316
		},
		{
			"buffer":0,
			"byteLength":2488,
			"byteOffset":138128
		},
		{
			"buffer":0,
			"byteLength":4812,
			"byteOffset":140616
		}
	],
	"buffers":[
		{
			"byteLength":145428,
			"uri":"LiaRobot.bin"
		}
	]
}
